<svg version="1.1" id="Layer_1" xmlns="http://www.w3.org/2000/svg" xmlns:xlink="http://www.w3.org/1999/xlink" x="0px" y="0px"
	 width="100%" viewBox="0 0 5556 5556" enable-background="new 0 0 5556 5556" xml:space="preserve">
<path fill="none" opacity="1.000000" stroke="none"
	d="
M5560.000000,1672.000000 
	C5560.000000,2967.626953 5560.000000,4263.253906 5560.000000,5560.000000 
	C4914.559570,5560.000000 4269.118652,5560.000000 3621.917969,5558.126953 
	C3620.173096,5009.135254 3620.188232,4462.017090 3620.202637,3914.898926 
	C3620.202881,3911.566895 3620.479004,3908.200684 3620.095459,3904.912109 
	C3619.660400,3901.180176 3618.627441,3897.517822 3617.598145,3892.602783 
	C3608.101807,3892.602783 3599.519287,3892.602783 3590.936768,3892.602783 
	C3054.480957,3892.602783 2518.025391,3892.603271 1981.569580,3892.603760 
	C1976.238403,3892.603760 1970.900146,3892.448242 1965.578247,3892.673096 
	C1961.757080,3892.834717 1957.957520,3893.509521 1953.911255,3893.983154 
	C1951.159424,3903.468018 1952.270996,3912.134033 1952.270142,3920.648682 
	C1952.214966,4458.437012 1952.221436,4996.225586 1952.211304,5534.014160 
	C1952.211060,5542.676270 1952.073486,5551.337891 1952.000000,5560.000000 
	C1302.853394,5560.000000 653.706848,5560.000000 4.000000,5560.000000 
	C4.000000,4266.559082 4.000000,2973.118408 4.906309,1677.654907 
	C7.047921,1675.111328 7.816008,1674.197632 9.968900,1672.640625 
	C19.820576,1672.372314 27.820230,1672.338989 35.819885,1672.338989 
	C572.472229,1672.336548 1109.124634,1672.336792 1645.776978,1672.336548 
	C1651.110229,1672.336548 1656.446411,1672.448975 1661.776001,1672.307495 
	C1673.101562,1672.007080 1675.272461,1669.751343 1675.630371,1657.861694 
	C1675.790649,1652.533325 1675.663086,1647.196167 1675.663086,1641.863037 
	C1675.663330,1105.210693 1675.659912,568.558289 1675.696533,31.905912 
	C1675.697144,23.929623 1676.195557,15.953366 1677.265137,7.528519 
	C1679.036011,6.256258 1679.679810,5.229610 1680.000000,4.000000 
	C2417.440674,4.000000 3154.881592,4.000000 3894.161133,5.874629 
	C3896.000000,551.487854 3896.000000,1095.226440 3896.001465,1638.964966 
	C3896.001465,1645.628418 3895.788818,1652.303467 3896.123047,1658.950684 
	C3896.313232,1662.731445 3897.412598,1666.466309 3897.968506,1669.493286 
	C3900.425781,1670.516113 3901.628418,1671.455322 3902.831543,1671.455811 
	C4455.221191,1671.679321 5007.610352,1671.839111 5560.000000,1672.000000 
M3063.923340,3614.474121 
	C3065.274658,3615.057617 3066.625977,3615.641113 3071.647217,3617.074707 
	C3076.978760,3617.118164 3082.310547,3617.199707 3087.642090,3617.199707 
	C3627.552979,3617.205566 4167.463867,3617.205078 4707.374512,3617.204346 
	C4711.373535,3617.204346 4715.396484,3617.462891 4719.365234,3617.113037 
	C4723.132324,3616.781006 4726.842773,3615.807617 4730.232422,3615.180176 
	C4732.359863,3593.266846 4732.130371,1968.233521 4730.110352,1952.770020 
	C4722.504883,1946.657227 4713.481445,1949.288696 4705.090820,1949.286865 
	C4165.846680,1949.162598 3626.602295,1949.174805 3087.358154,1949.177246 
	C3082.025879,1949.177246 3076.689697,1949.098511 3071.363770,1949.290771 
	C3069.487061,1949.358521 3067.635742,1950.129272 3065.174805,1950.723389 
	C3062.582520,1957.830444 3063.729980,1965.179321 3063.729004,1972.318481 
	C3063.664551,2512.229248 3063.667725,3052.139893 3063.699707,3592.050781 
	C3063.700195,3598.698242 3064.145996,3605.345459 3063.923340,3614.474121 
M840.111206,2698.000000 
	C840.111206,2993.937256 840.110962,3289.874512 840.112854,3585.811768 
	C840.112854,3591.810547 839.821899,3597.832520 840.266235,3603.799316 
	C840.545410,3607.547852 841.945129,3611.213379 843.132568,3616.114990 
	C851.775635,3616.114990 859.713379,3616.114990 867.651184,3616.114990 
	C1404.871094,3616.114990 1942.090942,3616.115234 2479.310791,3616.113525 
	C2484.642822,3616.113525 2489.995850,3616.372803 2495.300049,3615.981934 
	C2499.067139,3615.704590 2502.768555,3614.534912 2507.732178,3613.508789 
	C2507.840576,3604.156494 2508.026367,3595.588379 2508.026611,3587.020264 
	C2508.040527,3050.467041 2508.039062,2513.913574 2508.037842,1977.360352 
	C2508.037842,1972.028198 2508.245117,1966.682861 2507.934570,1961.368286 
	C2507.712891,1957.572510 2506.785645,1953.817871 2506.176270,1950.063965 
	C2497.370117,1947.037842 2489.335938,1948.158203 2481.473633,1948.157349 
	C1942.920776,1948.100830 1404.367920,1948.106079 865.815002,1948.107056 
	C861.815857,1948.107056 857.805603,1947.936890 853.820862,1948.179932 
	C849.994873,1948.413452 846.195435,1949.081543 843.218506,1949.454224 
	C841.941467,1951.920654 840.828918,1953.066406 840.827576,1954.213501 
	C840.537537,2200.808838 840.325745,2447.404541 840.111206,2698.000000 
z"/>
<path fill="#0A0A0A" opacity="1.000000" stroke="none" 
	d="
M1676.461670,7.977096 
	C1676.195557,15.953366 1675.697144,23.929623 1675.696533,31.905912 
	C1675.659912,568.558289 1675.663330,1105.210693 1675.663086,1641.863037 
	C1675.663086,1647.196167 1675.790649,1652.533325 1675.630371,1657.861694 
	C1675.272461,1669.751343 1673.101562,1672.007080 1661.776001,1672.307495 
	C1656.446411,1672.448975 1651.110229,1672.336548 1645.776978,1672.336548 
	C1109.124634,1672.336792 572.472229,1672.336548 35.819885,1672.338989 
	C27.820230,1672.338989 19.820576,1672.372314 8.990268,1672.184082 
	C5.439744,1671.985352 4.719872,1671.992676 4.000000,1672.000000 
	C4.000000,1116.291382 4.000000,560.582642 4.000000,4.000000 
	C560.083252,4.000000 1116.166992,4.000000 1673.961670,5.026677 
	C1675.935669,6.694601 1676.198608,7.335849 1676.461670,7.977096 
z"/>
<path fill="#C7AD90" opacity="1.000000" stroke="none" 
	d="
M1953.874634,5560.000000 
	C1952.073486,5551.337891 1952.211060,5542.676270 1952.211304,5534.014160 
	C1952.221436,4996.225586 1952.214966,4458.437012 1952.270142,3920.648682 
	C1952.270996,3912.134033 1951.159424,3903.468018 1953.911255,3893.983154 
	C1957.957520,3893.509521 1961.757080,3892.834717 1965.578247,3892.673096 
	C1970.900146,3892.448242 1976.238403,3892.603760 1981.569580,3892.603760 
	C2518.025391,3892.603271 3054.480957,3892.602783 3590.936768,3892.602783 
	C3599.519287,3892.602783 3608.101807,3892.602783 3617.598145,3892.602783 
	C3618.627441,3897.517822 3619.660400,3901.180176 3620.095459,3904.912109 
	C3620.479004,3908.200684 3620.202881,3911.566895 3620.202637,3914.898926 
	C3620.188232,4462.017090 3620.173096,5009.135254 3620.079102,5558.126953 
	C3065.249756,5560.000000 2510.499512,5560.000000 1953.874634,5560.000000 
z"/>
<path fill="#F8F4EC" opacity="1.000000" stroke="none" 
	d="
M5560.000000,1670.125366 
	C5007.610352,1671.839111 4455.221191,1671.679321 3902.831543,1671.455811 
	C3901.628418,1671.455322 3900.425781,1670.516113 3897.968506,1669.493286 
	C3897.412598,1666.466309 3896.313232,1662.731445 3896.123047,1658.950684 
	C3895.788818,1652.303467 3896.001465,1645.628418 3896.001465,1638.964966 
	C3896.000000,1095.226440 3896.000000,551.487854 3896.000000,5.874629 
	C4450.375488,4.000000 5004.750488,4.000000 5560.000000,4.000000 
	C5560.000000,558.749939 5560.000000,1113.500366 5560.000000,1670.125366 
z"/>
<path fill="#F8F4EC" opacity="1.000000" stroke="none" 
	d="
M1677.265137,7.528520 
	C1676.198608,7.335849 1675.935669,6.694601 1675.836304,5.026677 
	C1676.000000,4.000000 1678.000000,4.000000 1679.000000,4.000000 
	C1679.679810,5.229610 1679.036011,6.256258 1677.265137,7.528520 
z"/>
<path fill="#D1D1D1" opacity="1.000000" stroke="none" 
	d="
M4.000000,1673.000000 
	C4.719872,1671.992676 5.439744,1671.985352 7.138247,1672.434692 
	C7.816008,1674.197632 7.047921,1675.111328 4.906309,1675.816162 
	C4.000000,1676.000000 4.000000,1674.000000 4.000000,1673.000000 
z"/>
<path fill="#EBE1D6" opacity="1.000000" stroke="none" 
	d="
M840.111328,2696.000000 
	C840.325745,2447.404541 840.537537,2200.808838 840.827576,1954.213501 
	C840.828918,1953.066406 841.941467,1951.920654 843.218506,1949.454224 
	C846.195435,1949.081543 849.994873,1948.413452 853.820862,1948.179932 
	C857.805603,1947.936890 861.815857,1948.107056 865.815002,1948.107056 
	C1404.367920,1948.106079 1942.920776,1948.100830 2481.473633,1948.157349 
	C2489.335938,1948.158203 2497.370117,1947.037842 2506.176270,1950.063965 
	C2506.785645,1953.817871 2507.712891,1957.572510 2507.934570,1961.368286 
	C2508.245117,1966.682861 2508.037842,1972.028198 2508.037842,1977.360352 
	C2508.039062,2513.913574 2508.040527,3050.467041 2508.026611,3587.020264 
	C2508.026367,3595.588379 2507.840576,3604.156494 2507.732178,3613.508789 
	C2502.768555,3614.534912 2499.067139,3615.704590 2495.300049,3615.981934 
	C2489.995850,3616.372803 2484.642822,3616.113525 2479.310791,3616.113525 
	C1942.090942,3616.115234 1404.871094,3616.114990 867.651184,3616.114990 
	C859.713379,3616.114990 851.775635,3616.114990 843.132568,3616.114990 
	C841.945129,3611.213379 840.545410,3607.547852 840.266235,3603.799316 
	C839.821899,3597.832520 840.112854,3591.810547 840.112854,3585.811768 
	C840.110962,3289.874512 840.111206,2993.937256 840.111328,2696.000000 
z"/>
<path fill="#1D2426" opacity="1.000000" stroke="none" 
	d="
M3064.384033,3611.992920 
	C3064.145996,3605.345459 3063.700195,3598.698242 3063.699707,3592.050781 
	C3063.667725,3052.139893 3063.664551,2512.229248 3063.729004,1972.318481 
	C3063.729980,1965.179321 3062.582520,1957.830444 3065.174805,1950.723389 
	C3067.635742,1950.129272 3069.487061,1949.358521 3071.363770,1949.290771 
	C3076.689697,1949.098511 3082.025879,1949.177246 3087.358154,1949.177246 
	C3626.602295,1949.174805 4165.846680,1949.162598 4705.090820,1949.286865 
	C4713.481445,1949.288696 4722.504883,1946.657227 4730.110352,1952.770020 
	C4732.130371,1968.233521 4732.359863,3593.266846 4730.232422,3615.180176 
	C4726.842773,3615.807617 4723.132324,3616.781006 4719.365234,3617.113037 
	C4715.396484,3617.462891 4711.373535,3617.204346 4707.374512,3617.204346 
	C4167.463867,3617.205078 3627.552979,3617.205566 3087.642090,3617.199707 
	C3082.310547,3617.199707 3076.978760,3617.118164 3069.476807,3615.747070 
	C3066.596680,3613.291992 3065.622559,3612.483154 3064.384033,3611.992920 
z"/>
<path fill="#383838" opacity="1.000000" stroke="none" 
	d="
M3064.153809,3613.233398 
	C3065.622559,3612.483154 3066.596680,3613.291992 3067.642090,3615.322021 
	C3066.625977,3615.641113 3065.274658,3615.057617 3064.153809,3613.233398 
z"/>
</svg>